<svg width="1600" height="1600" viewBox="0 0 1600 1600" fill="none" xmlns="http://www.w3.org/2000/svg">
<rect width="1600" height="1600" fill="white"/>
<path fill-rule="evenodd" clip-rule="evenodd" d="M564 572C564 732.05 564.193 863 564.429 863C564.665 863 565.386 860.413 566.03 857.25C569.293 841.242 579.023 817.231 589.298 799.832C604.665 773.811 629.24 748.43 654.5 732.492C708.592 698.362 774.297 691.056 833.745 712.561C905.545 738.534 955.878 800.91 966.635 877.25C967.624 884.263 968.809 890 969.27 890C969.731 890 972.671 888.591 975.804 886.869C1021.86 861.552 1050.06 819.737 1058.6 764.126C1065.49 719.219 1060.15 677.534 1043.49 646.211C1024.25 610.047 992.999 585.015 949.25 570.727L937 566.726V562.422V558.117L946.527 552.51C987.676 528.292 1011.77 490.349 1014.94 444.776C1018.32 396.09 1003.97 355.019 973.521 326.191C946.62 300.728 909.465 286.266 860 282.007C853.095 281.413 791.657 281.014 706.25 281.009L564 281V572ZM747.5 718.609C721.035 722.462 713.113 724.323 696 730.707C664.494 742.462 636.369 763.499 616.062 790.5C594.481 819.194 584.021 850.577 584.006 886.678C583.997 906.935 586.436 921.689 592.819 940C602.298 967.194 623.082 995.891 647.214 1015.1C668.509 1032.06 697.701 1045.3 728 1051.74C739.464 1054.18 742.448 1054.4 764 1054.43C784.716 1054.47 788.922 1054.19 799.5 1052.11C838.752 1044.41 872.835 1026.43 898.561 999.858C909.598 988.459 915.291 981.064 922.915 968.224C953.654 916.456 953.398 855.377 922.224 803.5C896.446 760.602 849.165 729.502 796 720.473C786.92 718.931 753.984 717.665 747.5 718.609ZM704.238 786.753C700.883 793.764 693.334 809.625 687.464 822C681.593 834.375 674.538 849.225 671.786 855C669.033 860.775 663.279 872.925 658.999 882C654.718 891.075 648.19 904.8 644.492 912.5C640.794 920.2 636.301 929.65 634.509 933.5C632.718 937.35 629.134 944.927 626.547 950.337C623.959 955.748 622.029 960.362 622.258 960.591C622.486 960.82 686.408 960.893 764.305 960.753L905.937 960.5L903.979 956.5C900.894 950.201 888.052 923.125 885.007 916.5C883.49 913.2 875.393 896.1 867.013 878.5C858.633 860.9 849.527 841.775 846.778 836C844.029 830.225 838.5 818.525 834.492 810C830.484 801.475 824.937 789.873 822.165 784.217L817.126 773.935L811.954 784.717C809.11 790.648 803.506 802.475 799.502 811C795.498 819.525 788.224 834.825 783.338 845C778.451 855.175 772.214 868.328 769.477 874.228C766.739 880.129 764.238 884.966 763.918 884.978C763.367 884.999 761.139 880.479 747.17 851C743.912 844.125 738.663 833.1 735.506 826.5C732.349 819.9 725.529 805.523 720.35 794.551C715.172 783.579 710.801 774.468 710.637 774.304C710.473 774.139 707.593 779.742 704.238 786.753ZM1411.63 1009.47C1397.55 1014.49 1391.2 1031.44 1398.43 1044.71C1401.42 1050.2 1406.36 1054.3 1412.7 1056.56C1424.72 1060.84 1439.36 1053.46 1443.49 1041.03C1450.11 1021.1 1431.29 1002.46 1411.63 1009.47ZM1414.7 1013.46C1402.69 1016.6 1396.53 1030.72 1402.25 1042.03C1409.53 1056.42 1430.72 1056.48 1437.9 1042.12C1441.67 1034.57 1441.02 1027.04 1435.96 1019.95C1431.93 1014.28 1422.54 1011.42 1414.7 1013.46ZM1411 1032.57C1411 1044 1411.03 1044.13 1413.25 1043.82C1414.98 1043.57 1415.57 1042.74 1415.81 1040.25C1416.26 1035.64 1419.95 1035.76 1423.57 1040.5C1425.04 1042.42 1427.08 1044 1428.12 1044C1430.55 1044 1430.5 1042.45 1427.98 1039.24L1425.96 1036.68L1428.15 1034.35C1431.04 1031.27 1430.97 1026.66 1427.99 1023.49C1425.91 1021.28 1424.84 1021 1418.33 1021H1411V1032.57ZM1416 1029V1033.11L1420.15 1032.81C1422.76 1032.61 1424.7 1031.85 1425.39 1030.75C1427.18 1027.91 1424.95 1025.55 1420.15 1025.19L1416 1024.89V1029ZM386.5 1085.05C379.329 1086.15 368.29 1091.39 361.14 1097.08C346.502 1108.73 338.418 1129.49 341.068 1148.63C343.915 1169.19 359.248 1187.68 378.848 1194.19C384.883 1196.19 387.935 1196.43 411.75 1196.77L438 1197.15V1166.06V1134.96L415.25 1135.23L392.5 1135.5V1145V1154.5L405.75 1154.78L419 1155.06V1166.66V1178.27L403.523 1177.8C388.104 1177.33 388.018 1177.31 380.577 1173.64C372.204 1169.5 367.475 1164.7 363.216 1156.03C360.811 1151.13 360.5 1149.35 360.5 1140.5C360.5 1131.61 360.806 1129.88 363.255 1124.89C366.576 1118.13 375.196 1109.69 381.749 1106.78C392.87 1101.85 408.084 1103.68 417.928 1111.13C420.74 1113.26 423.288 1115 423.59 1115C424.452 1115 436.999 1103.58 436.999 1102.8C437.001 1101.36 429.448 1094.83 424.561 1092.05C413.439 1085.72 399.214 1083.1 386.5 1085.05ZM558 1140.5V1197H567.983H577.967L578.233 1170.92L578.5 1144.83L581.571 1149.17C606.064 1183.73 615.349 1195.96 616.424 1195.06C617.078 1194.52 625.463 1183.08 635.056 1169.64C644.65 1156.21 652.687 1145.39 652.915 1145.6C653.541 1146.2 653.708 1151.42 653.861 1175.25L654 1197H663.5H673V1140.5C673 1109.42 672.805 1084 672.566 1084C672.327 1084 666.488 1091.99 659.59 1101.75C627.964 1146.51 615.745 1163.14 615.049 1162.35C614.331 1161.54 601.55 1143.75 572.227 1102.75C564.851 1092.44 558.633 1084 558.408 1084C558.184 1084 558 1109.42 558 1140.5ZM840 1140.37V1197H849.484H858.967L859.234 1170.6L859.5 1144.2L877.5 1169.18C887.4 1182.92 896.009 1194.58 896.63 1195.1C897.419 1195.76 903.315 1188.29 916.13 1170.4L934.5 1144.75L934.767 1170.88L935.033 1197H944.517H954L954.132 1146.5C954.205 1118.73 954.324 1093.53 954.397 1090.5C954.47 1087.47 954.225 1085 953.853 1085C953.233 1085 948.024 1092.2 911.146 1144C904.294 1153.62 898.361 1161.87 897.962 1162.33C897.563 1162.79 889.213 1151.99 879.405 1138.33C869.597 1124.67 856.719 1106.8 850.786 1098.62L840 1083.74V1140.37ZM1398.47 1085.47C1389.6 1087.4 1383.14 1090.78 1377.46 1096.46C1370.25 1103.68 1368.5 1107.79 1368.5 1117.5C1368.5 1126.43 1370.52 1131.68 1376.34 1137.86C1383.15 1145.09 1390.47 1148.11 1407 1150.51C1420.21 1152.42 1425.11 1154.22 1428.95 1158.6C1432.52 1162.66 1432.75 1165.26 1429.97 1169.82C1424.86 1178.19 1407.57 1181.03 1396.23 1175.36C1392.75 1173.63 1389.71 1171.24 1388.5 1169.29C1387.4 1167.52 1386.2 1166.06 1385.84 1166.04C1385.29 1166.01 1371.47 1173.58 1370.09 1174.67C1369.19 1175.37 1372.17 1180.23 1376.17 1184.57C1392.68 1202.48 1425.77 1202.64 1442.92 1184.88C1454.78 1172.6 1453.44 1153.25 1439.94 1141.95C1433.42 1136.49 1427.71 1134.45 1410.93 1131.56C1395.88 1128.97 1391.03 1126.89 1388.48 1121.95C1386.24 1117.62 1386.66 1115.38 1390.55 1111.08C1399.44 1101.24 1420.63 1101.65 1429.19 1111.82C1430.63 1113.53 1431.97 1115.42 1432.17 1116.02C1432.58 1117.25 1449 1108.33 1449 1106.87C1449 1105.06 1444.16 1098.35 1440.58 1095.21C1435.44 1090.69 1427.88 1087.08 1420.13 1085.44C1412.07 1083.73 1406.42 1083.74 1398.47 1085.47ZM151 1140.89V1197H174.451C187.988 1197 200.142 1196.52 203.201 1195.88C213.971 1193.59 223.018 1187.21 228.124 1178.28C230.903 1173.43 231.444 1171.38 231.817 1164.27C232.224 1156.51 232.043 1155.53 229.084 1149.52C227.063 1145.41 224.129 1141.52 220.991 1138.77L216.068 1134.47L218.756 1128.98C226.191 1113.81 217.537 1094.64 200.202 1087.89C195.097 1085.9 192.222 1085.62 172.75 1085.22L151 1084.78V1140.89ZM277.667 1085.67C277.3 1086.03 277 1111.23 277 1141.67V1197H286.5H296V1141V1085H287.167C282.308 1085 278.033 1085.3 277.667 1085.67ZM721.679 1085.65C721.306 1086.03 721 1111.23 721 1141.67V1197H756.5H792V1187.5V1178H766.5H741V1164.5V1151H760H779V1141V1131H760H741V1118V1105H766.536H792.072L791.786 1095.25L791.5 1085.5L756.929 1085.24C737.916 1085.09 722.053 1085.28 721.679 1085.65ZM1003 1140.88V1197H1026.45C1039.99 1197 1052.14 1196.52 1055.2 1195.88C1078.1 1191.02 1090.64 1168.16 1080.97 1148.86C1079.77 1146.46 1076.38 1142.23 1073.44 1139.46L1068.09 1134.42L1070.77 1128.96C1078.19 1113.81 1069.68 1094.91 1052.33 1088.03C1047.04 1085.93 1044.49 1085.67 1024.75 1085.23L1003 1084.76V1140.88ZM1127.67 1085.67C1127.3 1086.03 1127 1111.23 1127 1141.67V1197H1137H1147V1172.88V1148.76L1165.25 1172.82L1183.5 1196.89L1195.25 1196.94C1201.71 1196.97 1207 1196.77 1207 1196.48C1207 1196.19 1199.61 1186.13 1190.59 1174.12L1174.18 1152.28L1179.84 1151.02C1191.62 1148.4 1199.75 1142.03 1204.59 1131.64C1207.93 1124.46 1207.92 1114.51 1204.56 1107.31C1199.39 1096.19 1188.3 1088.22 1175 1086.07C1167.91 1084.92 1128.75 1084.59 1127.67 1085.67ZM1252.68 1085.65C1252.31 1086.03 1252 1111.23 1252 1141.67V1197H1287.5H1323V1187.52V1178.03L1297.25 1177.77L1271.5 1177.5V1164.5V1151.5L1290.75 1151.23L1310 1150.96V1140.98V1131H1290.44H1270.87L1271.19 1118.25L1271.5 1105.5L1297.29 1105.23L1323.07 1104.97L1322.79 1095.23L1322.5 1085.5L1287.93 1085.24C1268.92 1085.09 1253.05 1085.28 1252.68 1085.65ZM170.218 1116.75L170.5 1128.5L181.529 1128.47C190.763 1128.45 193.123 1128.11 196.027 1126.42C200.52 1123.79 202.198 1120.5 201.601 1115.5C200.696 1107.92 194.491 1105.01 179.218 1105.01L169.937 1105L170.218 1116.75ZM1022.22 1116.75L1022.5 1128.5L1033.62 1128.47C1043.97 1128.44 1045.02 1128.25 1048.78 1125.76C1053.15 1122.87 1054.64 1119.21 1053.52 1114.1C1052.14 1107.8 1045.65 1105.11 1031.72 1105.04L1021.94 1105L1022.22 1116.75ZM1147 1119.59V1134.19L1161.25 1133.84C1174.23 1133.53 1175.9 1133.28 1180 1131C1188.65 1126.2 1190.21 1117.28 1183.57 1110.63C1179.15 1106.22 1173.85 1105 1159.06 1105H1147V1119.59ZM170.223 1162.75L170.5 1177.5L181.926 1177.78C197.791 1178.18 203.386 1176.87 208.75 1171.51C212.23 1168.03 213 1166.59 213 1163.54C213 1156.29 207.632 1151.05 198.201 1149.1C195.286 1148.49 187.737 1148 181.424 1148H169.947L170.223 1162.75ZM1022.22 1162.75L1022.5 1177.5L1034.88 1177.78C1050.61 1178.14 1056.23 1176.7 1061.38 1171.01C1065.58 1166.35 1066.2 1161.34 1063.14 1156.69C1058.91 1150.29 1051.3 1148.04 1033.72 1148.02L1021.95 1148L1022.22 1162.75Z" fill="#004AAC"/>
</svg>
